<?xml version="1.0" encoding="UTF-8" standalone="no"?>
<!DOCTYPE svg PUBLIC "-//W3C//DTD SVG 1.1//EN" "http://www.w3.org/Graphics/SVG/1.1/DTD/svg11.dtd">
<svg width="100%" height="100%" viewBox="0 0 1570 1224" version="1.1" xmlns="http://www.w3.org/2000/svg" xmlns:xlink="http://www.w3.org/1999/xlink" xml:space="preserve" xmlns:serif="http://www.serif.com/" style="fill-rule:evenodd;clip-rule:evenodd;stroke-linecap:round;stroke-linejoin:round;">
    <path d="M267.959,720.867C267.959,76.142 685.142,53.438 867.512,337.955C927.115,49.7 1327.81,49.699 1272.68,368.534C1725.63,469.836 1522.66,819.374 1272.68,973.574C1022.69,1127.77 202.397,1249.34 87.725,973.574C-26.946,697.813 149.142,549.608 267.959,720.867Z" style="fill:rgb(250,252,253);"/>
    <path d="M303.172,778.758C164.67,508.53 -26.946,697.813 87.725,973.574C202.397,1249.34 1022.69,1127.77 1272.68,973.574C1522.66,819.374 1725.63,469.836 1272.68,368.534C1327.81,49.699 927.115,49.7 867.512,337.955M927.115,469.836C912.647,420.751 892.238,376.53 867.512,337.955M867.512,337.955C685.142,53.438 267.959,76.142 267.959,720.867" style="fill:none;fill-rule:nonzero;stroke:rgb(214,223,238);stroke-width:32px;"/>
</svg>
